<svg width="283" height="147" viewBox="0 0 283 147" fill="none" xmlns="http://www.w3.org/2000/svg">
<path d="M20.758 1.26772C18.4346 0.385382 15.8359 1.55358 14.9535 3.87697L0.57502 41.7387C-0.307325 44.0621 0.860881 46.6608 3.18427 47.5431C5.50764 48.4255 8.10639 47.2573 8.98873 44.9339L21.7696 11.279L55.4245 24.0599C57.7478 24.9423 60.3466 23.7741 61.2289 21.4507C62.1113 19.1273 60.9431 16.5286 58.6197 15.6462L20.758 1.26772ZM282.732 143.329C279.646 136.291 272.237 126.455 262.908 118.092C253.596 109.745 241.65 102.213 229.239 100.792L228.216 109.734C237.935 110.847 248.179 116.976 256.9 124.794C265.604 132.596 272.072 141.43 274.489 146.943L282.732 143.329ZM229.239 100.792C222.868 100.063 213.97 101.556 204.344 103.548C194.348 105.617 183.332 108.286 171.515 110.507C147.817 114.962 123.582 117.01 106.079 108.316L102.075 116.376C122.554 126.549 149.579 123.788 173.178 119.352C185.01 117.128 196.652 114.331 206.168 112.361C216.055 110.315 223.522 109.197 228.216 109.734L229.239 100.792ZM106.079 108.316C88.1123 99.3908 70.5327 80.371 55.7172 59.6303C40.9885 39.0109 29.398 17.2733 23.2648 3.62956L15.056 7.31959C21.4027 21.4383 33.2796 43.7027 48.3938 64.8616C63.4212 85.899 82.0599 106.434 102.075 116.376L106.079 108.316Z" fill="#91C6EA"/>
</svg>
