<svg width="80" height="99" viewBox="0 0 80 99" fill="none" xmlns="http://www.w3.org/2000/svg">
<path id="Vector 1" d="M16.3899 0.566358C15.5943 -0.199861 14.3282 -0.176043 13.562 0.619558L1.0757 13.5846C0.309482 14.3802 0.333295 15.6463 1.1289 16.4125C1.9245 17.1788 3.1906 17.155 3.95683 16.3593L15.0557 4.83485L26.5802 15.9338C27.3758 16.7 28.6419 16.6762 29.4082 15.8806C30.1744 15.085 30.1506 13.8189 29.355 13.0526L16.3899 0.566358ZM93.7335 98.1791C93.7028 94.9475 92.4645 89.9378 90.2486 85.1856C88.0371 80.4427 84.671 75.5646 80.1065 72.9655L78.1273 76.4415C81.6458 78.445 84.5609 82.4528 86.6233 86.876C88.6814 91.2898 89.71 95.7261 89.7337 98.2172L93.7335 98.1791ZM80.1065 72.9655C77.7597 71.6292 74.0778 70.7398 70.058 69.9268C65.8734 69.0805 61.2133 68.3003 56.3112 67.2153C46.4779 65.0388 36.873 61.856 31.6062 55.6801L28.5627 58.2756C34.7876 65.5752 45.6575 68.954 55.4467 71.1208C60.3558 72.2074 65.2939 73.0443 69.2651 73.8475C73.4011 74.684 76.4325 75.4765 78.1273 76.4415L80.1065 72.9655ZM31.6062 55.6801C26.1902 49.3291 22.5637 39.1656 20.277 28.775C18.0045 18.4492 17.1195 8.20804 17.0022 1.9693L13.0029 2.04454C13.1246 8.51464 14.0347 19.0212 16.3705 29.6347C18.692 40.1836 22.487 51.1511 28.5627 58.2756L31.6062 55.6801Z" fill="#91C6EA"/>
</svg>
