<svg width="66" height="130" viewBox="0 0 66 130" fill="none" xmlns="http://www.w3.org/2000/svg">
<g id="Group 1">
<path id="Vector 3" d="M-5.02813 80.9305L-5.57791 82.8535L-5.02813 80.9305ZM38.7455 93.4244L37.4658 91.8874L38.7455 93.4244ZM50.0626 0.394682C49.1456 -0.221035 47.903 0.0232372 47.2873 0.940281L37.2536 15.8843C36.6379 16.8014 36.8822 18.0439 37.7992 18.6596C38.7162 19.2754 39.9588 19.0311 40.5745 18.114L49.4934 4.83044L62.777 13.7493C63.694 14.365 64.9365 14.1207 65.5523 13.2037C66.168 12.2867 65.9237 11.0441 65.0067 10.4284L50.0626 0.394682ZM-0.145795 125.573C-0.237655 124.857 -0.669115 124.439 -0.799018 124.32C-0.974796 124.158 -1.14464 124.057 -1.23409 124.007C-1.42235 123.901 -1.613 123.826 -1.74027 123.778C-2.01494 123.676 -2.36463 123.57 -2.73092 123.465C-3.46812 123.254 -4.54285 122.972 -5.74693 122.643C-8.20564 121.972 -11.4406 121.042 -14.6992 119.805C-17.9763 118.562 -21.1716 117.047 -23.5989 115.247C-26.0538 113.425 -27.4407 111.525 -27.6917 109.569L-31.6592 110.077C-31.2067 113.606 -28.81 116.361 -25.9823 118.459C-23.1269 120.578 -19.5406 122.247 -16.1183 123.545C-12.6776 124.851 -9.29546 125.821 -6.80068 126.502C-5.52801 126.85 -4.54189 127.107 -3.83178 127.311C-3.47442 127.413 -3.25385 127.483 -3.13635 127.527C-3.06753 127.552 -3.10662 127.543 -3.19093 127.495C-3.22841 127.474 -3.35818 127.4 -3.50618 127.264C-3.6083 127.17 -4.02426 126.776 -4.1133 126.082L-0.145795 125.573ZM-27.6917 109.569C-28.3896 104.126 -28.7648 95.496 -25.9765 89.2399C-24.6168 86.1892 -22.5576 83.8182 -19.4845 82.5616C-16.3754 81.2903 -11.9302 81.0373 -5.57791 82.8535L-4.47835 79.0076C-11.3579 77.0407 -16.7854 77.1365 -20.9984 78.8592C-25.2475 80.5966 -27.96 83.8646 -29.63 87.6116C-32.9011 94.9508 -32.3681 104.55 -31.6592 110.077L-27.6917 109.569ZM-5.57791 82.8535C-4.60626 83.1313 -2.79177 83.9756 -0.334999 85.2507C2.06251 86.495 4.88585 88.049 7.80619 89.6434C10.7125 91.2302 13.7075 92.8529 16.4002 94.2058C19.0608 95.5425 21.5483 96.6789 23.405 97.2343L24.5514 93.4021C23.0634 92.9569 20.852 91.9659 18.196 90.6315C15.5721 89.3133 12.6327 87.7212 9.72302 86.1326C6.82736 84.5516 3.95311 82.9696 1.50763 81.7004C-0.878574 80.4619 -3.05245 79.4152 -4.47835 79.0076L-5.57791 82.8535ZM23.405 97.2343C26.9528 98.2956 30.0608 98.6206 32.8375 98.2117C35.6411 97.7989 37.9915 96.6546 40.0252 94.9615L37.4658 91.8874C35.9475 93.1515 34.2693 93.9577 32.2548 94.2544C30.2135 94.5549 27.7138 94.3481 24.5514 93.4021L23.405 97.2343ZM40.0252 94.9615C46.0756 89.9241 49.817 82.2102 52.0673 73.5524C54.3239 64.8704 55.1369 55.025 55.1674 45.4624C55.2284 26.3347 52.1565 8.00902 50.9102 1.66934L46.9853 2.44093C48.2061 8.65071 51.2272 26.69 51.1674 45.4497C51.1375 54.8309 50.3367 64.3098 48.1959 72.5461C46.0489 80.8066 42.6095 87.605 37.4658 91.8874L40.0252 94.9615Z" fill="#FC7927"/>
</g>
</svg>
