<svg width="319" height="313" viewBox="0 0 319 313" fill="none" xmlns="http://www.w3.org/2000/svg">
<g id="Group 1">
<path id="Vector 3" d="M109.241 150.27L105.092 152.013L109.241 150.27ZM146.58 239.051L147.476 234.641L146.58 239.051ZM315.357 134.531C315.146 132.054 312.968 130.218 310.492 130.428L270.137 133.861C267.661 134.072 265.824 136.25 266.035 138.726C266.246 141.203 268.424 143.039 270.9 142.829L306.771 139.777L309.822 175.648C310.033 178.124 312.211 179.961 314.687 179.75C317.164 179.54 319 177.361 318.79 174.885L315.357 134.531ZM42.2262 217.622C43.3529 216.453 43.4782 215.109 43.5047 214.716C43.5406 214.182 43.4794 213.745 43.4421 213.521C43.3637 213.05 43.2304 212.62 43.1388 212.343C42.9404 211.744 42.6487 211.018 42.3365 210.274C41.708 208.777 40.7476 206.624 39.6979 204.206C37.5516 199.262 34.8075 192.701 32.5375 185.699C30.2538 178.654 28.5308 171.403 28.2903 165.049C28.0469 158.617 29.3434 153.901 32.1666 150.973L25.6873 144.727C20.39 150.221 19.0139 157.914 19.2967 165.389C19.5826 172.942 21.5847 181.097 23.9761 188.474C26.3813 195.893 29.2624 202.769 31.4423 207.79C32.5557 210.355 33.4337 212.318 34.0377 213.757C34.3417 214.482 34.5148 214.93 34.5946 215.171C34.6421 215.315 34.6013 215.222 34.5643 214.999C34.5478 214.9 34.4945 214.565 34.525 214.111C34.5462 213.797 34.6527 212.51 35.7469 211.375L42.2262 217.622ZM32.1666 150.973C40.2196 142.62 53.9214 130.623 67.8604 126.961C74.6457 125.179 81.2106 125.441 87.2786 128.808C93.4231 132.216 99.6932 139.159 105.092 152.013L113.39 148.528C107.513 134.536 100.136 125.648 91.6447 120.938C83.077 116.184 74.018 116.039 65.5739 118.257C49.0541 122.596 33.8751 136.234 25.6873 144.727L32.1666 150.973ZM105.092 152.013C105.908 153.955 106.913 158.04 108.062 163.788C109.183 169.388 110.356 176.101 111.591 183.034C112.821 189.931 114.109 197.026 115.443 203.266C116.759 209.427 118.182 215.057 119.733 218.88L128.073 215.496C126.847 212.475 125.558 207.534 124.244 201.385C122.946 195.314 121.683 188.36 120.452 181.454C119.227 174.584 118.032 167.742 116.888 162.023C115.773 156.45 114.618 151.45 113.39 148.528L105.092 152.013ZM119.733 218.88C122.689 226.166 126.287 231.762 130.675 235.837C135.108 239.953 140.154 242.338 145.685 243.461L147.476 234.641C143.424 233.818 139.917 232.137 136.8 229.242C133.637 226.305 130.688 221.943 128.073 215.496L119.733 218.88ZM145.685 243.461C162.086 246.792 179.831 242.73 197.123 234.97C214.467 227.186 231.811 215.477 247.641 202.859C279.307 177.618 305.495 148.271 314.313 137.813L307.433 132.011C298.807 142.241 273.05 171.097 242.032 195.821C226.52 208.185 209.836 219.399 193.438 226.759C176.988 234.141 161.276 237.444 147.476 234.641L145.685 243.461Z" fill="#FC7927"/>
</g>
</svg>
