<svg width="100" height="99" viewBox="0 0 100 99" fill="none" xmlns="http://www.w3.org/2000/svg">
<g id="re edu logo-02 1">
<g id="Group">
<path id="Vector" d="M25.846 33.6931C22.098 33.6931 19.581 34.9141 18.295 37.3541C17.576 38.7271 17.216 40.8411 17.216 43.6951V60.7251H7.83496V25.0961H16.726V31.3061C18.164 28.9311 19.417 27.3071 20.485 26.4361C22.228 24.9761 24.494 24.2461 27.284 24.2461C27.458 24.2461 27.605 24.2521 27.725 24.2621C27.845 24.2731 28.112 24.2901 28.526 24.3111V33.8561C27.938 33.7911 27.415 33.7471 26.957 33.7251C26.499 33.7041 26.129 33.6921 25.846 33.6921V33.6931Z" fill="white"/>
<path id="Vector_2" d="M64.2248 56.619C63.6758 57.241 62.8318 58.096 61.6628 58.924C57.6338 61.781 53.2748 61.816 51.4108 61.816C46.8778 61.816 42.8798 60.356 39.4148 57.436C35.9498 54.516 34.2178 49.766 34.2178 43.185C34.2178 37.018 35.7808 32.29 38.9088 28.999C42.0358 25.709 46.0938 24.063 51.0848 24.063C54.0478 24.063 56.7178 24.619 59.0928 25.73C61.4678 26.841 63.4288 28.596 64.9768 30.993C66.3708 33.107 67.2758 35.558 67.6898 38.348C67.9298 39.982 68.0278 42.336 67.9838 45.408H43.5998C43.7308 48.982 44.8528 51.488 46.9668 52.926C48.5698 54.017 50.3808 54.164 51.6088 54.266C52.6758 54.355 54.5908 54.493 56.7658 53.56C58.5318 52.803 59.6718 51.681 60.2708 50.995C61.5888 52.87 62.9078 54.744 64.2258 56.619H64.2248ZM59.7578 39.367C59.5898 36.905 58.7688 35.036 57.2948 33.761C55.8208 32.486 53.9928 31.849 51.8118 31.849C49.4388 31.849 47.5988 32.525 46.2928 33.876C44.9858 35.227 44.1648 37.058 43.8298 39.367H59.7588H59.7578Z" fill="white"/>
</g>
<path id="Vector_3" d="M86.1091 57.7001H76.2051V47.9591H86.1091V57.7001ZM79.4741 47.4961C77.9051 48.1501 76.8151 48.4771 76.2051 48.4771V44.8811C78.4061 44.2491 79.9421 43.1271 80.8141 41.5141C81.3581 40.5111 81.7071 39.0511 81.8601 37.1341H76.2051V27.3931H86.2721V35.8261C86.2721 37.3301 86.0761 38.8821 85.6841 40.4841C85.2921 42.0861 84.5611 43.4751 83.4941 44.6521C82.3831 45.8941 81.0421 46.8421 79.4741 47.4961Z" fill="white"/>
<g id="Group_2">
<path id="Vector_4" d="M27.2911 79.122V73.764C26.9611 74.293 26.5321 74.707 26.0031 75.006C25.4741 75.305 24.8701 75.454 24.1901 75.454C22.7131 75.454 21.5331 74.904 20.6511 73.805C19.7681 72.706 19.3271 71.198 19.3271 69.282C19.3271 67.62 19.7751 66.258 20.6721 65.197C21.5681 64.136 22.6721 63.605 23.9851 63.605C24.7821 63.605 25.4481 63.756 25.9841 64.058C26.5201 64.36 26.9971 64.844 27.4161 65.511V63.955H30.2701V79.122H27.2921H27.2911ZM22.9581 71.914C23.3601 72.563 23.9901 72.888 24.8491 72.888C25.4121 72.888 25.9071 72.709 26.3331 72.352C27.0271 71.761 27.3741 70.779 27.3741 69.405C27.3741 68.423 27.1581 67.623 26.7251 67.004C26.2921 66.386 25.6601 66.077 24.8291 66.077C23.9981 66.077 23.3801 66.389 22.9741 67.015C22.5621 67.633 22.3561 68.461 22.3561 69.498C22.3561 70.46 22.5571 71.265 22.9591 71.914H22.9581Z" fill="white"/>
<path id="Vector_5" d="M40.139 63.955H42.993V75.186H40.015V69.076C40.015 68.355 39.919 67.774 39.727 67.335C39.356 66.524 38.669 66.119 37.666 66.119C36.883 66.119 36.357 66.404 36.09 66.974C35.939 67.297 35.863 67.778 35.863 68.416V75.185H32.854V68.416C32.854 67.131 33.015 66.16 33.338 65.5C33.915 64.305 35.034 63.707 36.697 63.707C37.274 63.707 37.777 63.783 38.206 63.934C38.635 64.085 39.08 64.367 39.54 64.779C39.691 64.909 39.822 65.061 39.932 65.232C40.042 65.404 40.111 65.507 40.138 65.541V63.954L40.139 63.955Z" fill="white"/>
<path id="Vector_6" d="M53.951 74.506C53.055 75.138 51.902 75.454 50.494 75.454C48.839 75.454 47.54 74.918 46.599 73.847C45.658 72.775 45.187 71.275 45.187 69.344C45.187 67.634 45.613 66.243 46.465 65.171C47.317 64.099 48.646 63.564 50.452 63.564C52.258 63.564 53.622 64.206 54.542 65.491C55.119 66.288 55.442 67.133 55.511 68.026H52.513C52.451 67.435 52.276 66.954 51.988 66.584C51.699 66.213 51.212 66.028 50.525 66.028C49.556 66.028 48.897 66.495 48.547 67.429C48.355 67.93 48.259 68.593 48.259 69.418C48.259 70.284 48.355 70.977 48.547 71.499C48.911 72.481 49.588 72.972 50.577 72.972C51.271 72.972 51.782 72.745 52.112 72.292C52.339 71.955 52.479 71.578 52.534 71.159H55.543C55.378 72.759 54.848 73.876 53.951 74.508V74.506Z" fill="white"/>
<path id="Vector_7" d="M57.1603 71.549H59.9933C60.0623 71.982 60.1993 72.325 60.4053 72.579C60.6933 72.922 61.1853 73.094 61.8783 73.094C62.4963 73.094 62.9653 73.006 63.2843 72.831C63.6033 72.656 63.7633 72.338 63.7633 71.878C63.7633 71.5 63.5533 71.222 63.1343 71.043C62.9003 70.94 62.5123 70.854 61.9703 70.785L60.9713 70.661C59.8383 70.517 58.9793 70.276 58.3953 69.94C57.3303 69.322 56.7983 68.322 56.7983 66.942C56.7983 65.877 57.1293 65.055 57.7923 64.474C58.4553 63.894 59.2953 63.603 60.3113 63.603C61.1083 63.603 61.8223 63.785 62.4543 64.149C62.9833 64.458 63.4503 64.832 63.8553 65.272C63.8763 65.018 63.9033 64.791 63.9373 64.592C63.9713 64.393 64.0333 64.18 64.1223 63.953H67.3163V64.386C67.1243 64.475 66.9793 64.589 66.8833 64.726C66.7873 64.863 66.7283 65.124 66.7083 65.509C66.6943 66.017 66.6873 66.45 66.6873 66.807V71.959C66.6873 73.312 66.2093 74.233 65.2553 74.72C64.3003 75.208 63.2083 75.452 61.9793 75.452C60.0903 75.452 58.7573 74.957 57.9813 73.968C57.4933 73.336 57.2193 72.529 57.1573 71.547L57.1603 71.549ZM59.7463 67.159C59.7463 67.722 59.9733 68.138 60.4263 68.406C60.6943 68.564 61.1373 68.698 61.7553 68.808L62.4143 68.932C62.7443 68.994 63.0033 69.061 63.1923 69.133C63.3813 69.205 63.5683 69.299 63.7543 69.416V68.324C63.7333 67.342 63.4573 66.665 62.9253 66.294C62.3933 65.923 61.8103 65.738 61.1793 65.738C60.7813 65.738 60.4443 65.851 60.1693 66.078C59.8873 66.298 59.7473 66.658 59.7473 67.16L59.7463 67.159Z" fill="white"/>
<path id="Vector_8" d="M74.1451 66.0309C74.0451 66.0269 73.9511 66.0259 73.8621 66.0259C73.2641 66.0259 72.9071 66.0829 72.7901 66.1959C72.6731 66.3089 72.6151 66.5959 72.6151 67.0559V72.9909H74.4391V75.0829H72.6151V78.2149H69.7091V75.0829H68.1431V72.9909H69.7091V66.0769C69.7091 65.3759 69.8741 64.8579 70.2041 64.5209C70.7121 63.9919 71.6601 63.7519 73.0481 63.7999L74.4391 63.8519V66.0469C74.3431 66.0399 74.2451 66.0349 74.1451 66.0319V66.0309Z" fill="white"/>
<path id="Vector_9" d="M15.8521 67.3C15.6761 67.098 15.3411 66.769 14.8231 66.547C14.1841 66.273 13.6221 66.314 13.3091 66.34C12.9491 66.37 12.4171 66.413 11.9461 66.734C11.3251 67.156 10.9961 67.892 10.9571 68.942H18.1171C18.1301 69.844 18.1011 70.535 18.0311 71.015C17.9091 71.834 17.6441 72.554 17.2341 73.175C16.7801 73.879 16.2041 74.394 15.5061 74.72C14.8081 75.046 14.0251 75.21 13.1541 75.21C11.6891 75.21 10.4971 74.727 9.57915 73.761C8.66115 72.795 8.20215 71.406 8.20215 69.595C8.20215 67.662 8.71115 66.268 9.72815 65.41C10.7451 64.552 11.9201 64.124 13.2501 64.124C13.7971 64.124 15.0771 64.134 16.2601 64.973C16.6031 65.216 16.8511 65.467 17.0121 65.65C16.6251 66.2 16.2381 66.751 15.8511 67.301L15.8521 67.3ZM10.7981 70.72C10.8881 71.398 11.1071 71.936 11.4551 72.332C11.8041 72.729 12.2951 72.927 12.9281 72.927C13.5101 72.927 13.9981 72.74 14.3921 72.366C14.7861 71.992 15.0051 71.443 15.0491 70.72H10.7971H10.7981Z" fill="white"/>
<path id="Vector_10" d="M84.421 67.1289C84.245 66.9269 83.91 66.5979 83.392 66.3759C82.753 66.1019 82.191 66.1429 81.878 66.1689C81.518 66.1989 80.986 66.2419 80.515 66.5629C79.894 66.9849 79.565 67.7209 79.526 68.7709H86.686C86.699 69.6729 86.67 70.3639 86.6 70.8439C86.478 71.6629 86.213 72.3829 85.803 73.0039C85.349 73.7079 84.773 74.2229 84.075 74.5489C83.377 74.8749 82.594 75.0389 81.723 75.0389C80.258 75.0389 79.066 74.5559 78.148 73.5899C77.23 72.6239 76.771 71.2349 76.771 69.4239C76.771 67.4909 77.28 66.0969 78.297 65.2389C79.314 64.3809 80.489 63.9529 81.819 63.9529C82.366 63.9529 83.646 63.9629 84.829 64.8019C85.172 65.0449 85.42 65.2959 85.581 65.4789C85.194 66.0289 84.807 66.5799 84.42 67.1299L84.421 67.1289ZM79.368 70.5489C79.458 71.2269 79.677 71.7649 80.025 72.1609C80.374 72.5579 80.865 72.7559 81.498 72.7559C82.08 72.7559 82.568 72.5689 82.962 72.1949C83.356 71.8209 83.575 71.2719 83.619 70.5489H79.367H79.368Z" fill="white"/>
</g>
</g>
</svg>
